<!-- <svg xmlns="http://www.w3.org/2000/svg" viewBox="0 0 24 24" fill="currentColor" class="hamburger-icon" 
aria-labelledby="burgerTitle burgerDesc" role="img">
    <title id="burgerTitle">An "hamburger" menu icon.</title>
    <desc id="burgerDesc">Three horizontal lines, positioned one above the other.</desc>
    <path fill-rule="evenodd" d="M3 6.75A.75.75 0 013.75 6h16.5a.75.75 0 010 1.5H3.75A.75.75 0 013 6.75zM3 
    12a.75.75 0 01.75-.75h16.5a.75.75 0 010 1.5H3.75A.75.75 0 013 12zm0 5.25a.75.75 0 01.75-.75h16.5a.75.75 
    0 010 1.5H3.75a.75.75 0 01-.75-.75z" clip-rule="evenodd" />
</svg> -->


<svg xmlns="http://www.w3.org/2000/svg" x="0px" y="0px" width="100" height="100" viewBox="0 0 50 50">
<path d="M 2 9 L 2 11 L 48 11 L 48 9 L 2 9 z M 2 24 L 2 26 L 48 26 L 48 24 L 2 24 z M 2 39 L 2 41 L 48 41 L 48 39 L 2 39 z"></path>
</svg>